<svg xmlns="http://www.w3.org/2000/svg" xml:space="preserve" style="shape-rendering:geometricPrecision;text-rendering:geometricPrecision;image-rendering:optimizeQuality;fill-rule:evenodd;clip-rule:evenodd" viewBox="0 0 107002.74 21559.2">
  <defs>
    <style>
      .ramestta_logo_svg__fil0,.ramestta_logo_svg__fil2,.ramestta_logo_svg__fil3{fill:#fefefe}.ramestta_logo_svg__fil0,.ramestta_logo_svg__fil3{fill-rule:nonzero}.ramestta_logo_svg__fil0{fill:#a229c6}
    </style>
  </defs>
  <g id="ramestta_logo_svg__Layer_x0020_1">
    <g id="ramestta_logo_svg___2019941761040">
      <path class="ramestta_logo_svg__fil0" d="M35561.06 14777.1h-2225.17l-1561.52-2104.15h-3488.06v2104.15h-1789.89v-3894.05h6119.22c316.21 0 587.53-113.21 811.99-337.68 224.47-224.47 337.68-495.78 337.68-811.99 0-320.11-113.21-593.38-337.68-817.85-224.47-224.47-495.78-337.68-811.99-337.68h-6119.22V6782.1l6119.22 5.86c404.04 0 782.71 78.07 1137.96 234.23 724.16 320.11 1247.26 843.22 1571.28 1567.38 156.15 380.62 236.18 763.19 236.18 1143.82 0 376.72-80.03 757.34-236.18 1137.96-312.3 704.63-817.85 1219.94-1520.53 1543.96l1756.71 2361.8z"/>
      <path id="ramestta_logo_svg___1" class="ramestta_logo_svg__fil0" d="M46505.4 14777.1h-2047.55l-3208.93-5730.79-3212.84 5730.79h-2047.55l4477.67-7995h1561.52z"/>
      <path id="ramestta_logo_svg___2" class="ramestta_logo_svg__fil0" d="M57455.58 14777.1h-1789.89V9549.9l-2740.48 3911.62h-1463.93L48728.62 9549.9v5227.2h-1795.75v-7995h2029.98l3230.4 4616.25L55425.6 6782.1h2029.98z"/>
      <path id="ramestta_logo_svg___3" class="ramestta_logo_svg__fil0" d="M68394.06 14777.1h-2047.55l-3208.93-5730.79-3212.84 5730.79h-2047.55l4477.67-7995h1561.53z"/>
      <path id="ramestta_logo_svg___4" class="ramestta_logo_svg__fil0" d="M74558.17 14777.1H70697.3c-347.44 0-677.31-62.46-989.62-189.34-628.51-251.79-1093.07-681.22-1395.61-1292.16-144.44-300.59-216.66-622.66-216.66-966.19h1795.75c0 140.54 40.99 259.6 124.92 357.2 83.93 97.59 189.34 171.76 312.3 220.56 124.92 48.8 247.89 74.17 368.91 74.17h3860.87c121.02 0 245.94-25.37 370.87-74.17 124.92-48.8 230.32-122.97 314.26-220.56 83.93-97.6 126.87-216.66 126.87-357.2 0-136.63-42.94-253.75-126.87-351.34-83.93-97.6-189.34-171.77-314.26-222.52-124.92-52.71-249.85-78.08-370.87-78.08h-3860.87c-347.44 0-677.31-60.51-989.62-183.48-628.51-251.79-1093.07-681.21-1395.61-1292.16-144.44-300.59-216.66-622.66-216.66-966.19 0-343.54 72.22-665.6 216.66-966.19 302.55-610.95 767.1-1040.37 1395.61-1292.16 312.3-122.97 642.18-183.48 989.62-183.48h3860.87c349.39 0 679.27 60.51 987.66 183.48 634.37 251.8 1100.88 681.22 1401.47 1292.16 140.54 300.59 212.75 622.65 212.75 966.19h-1789.89c0-136.63-42.94-253.75-126.87-351.34-83.93-97.6-189.34-171.77-314.26-222.52-124.92-52.71-249.85-78.08-370.87-78.08h-3860.87c-121.02 0-243.99 25.37-368.91 78.08-122.97 50.75-228.37 124.92-312.3 222.52-83.93 97.6-124.92 214.71-124.92 351.34 0 140.54 40.99 259.6 124.92 355.24 83.93 95.65 189.34 167.86 312.3 220.56 124.92 50.75 247.89 76.13 368.91 76.13h3860.87c349.39 0 679.27 62.46 987.66 189.33 634.37 251.8 1100.88 681.22 1401.47 1292.16 140.54 300.59 212.75 620.7 212.75 960.34 0 343.53-72.22 665.6-212.75 966.19-300.59 610.94-767.1 1040.37-1401.47 1292.16-308.4 126.87-638.27 189.34-987.66 189.34z"/>
      <path id="ramestta_logo_svg___5" class="ramestta_logo_svg__fil0" d="M84604.63 14777.1h-3855.01c-359.15 0-692.93-66.36-1007.18-201.05-644.13-284.98-1106.73-747.58-1389.76-1389.76-136.63-316.21-204.95-651.94-204.95-1011.09V9413.26c0-355.25 68.32-690.98 204.95-1007.19 283.03-640.22 745.63-1102.82 1389.76-1389.76 314.26-136.63 648.03-204.95 1007.18-204.95h3855.01c357.2 0 694.88 68.31 1011.09 204.95 640.23 286.93 1104.78 749.53 1389.76 1389.76 132.73 316.21 201.04 651.94 201.04 1007.19h-1789.89c0-224.47-80.03-415.76-238.13-571.91-158.11-156.15-349.39-234.23-573.86-234.23h-3855.01c-224.47 0-415.76 78.08-573.86 234.23-160.06 156.15-238.14 347.44-238.14 571.91v2761.94c0 224.47 78.08 415.76 238.14 573.86 158.1 158.11 349.39 238.14 573.86 238.14h3855.01c224.47 0 415.76-80.03 573.86-238.14 158.1-158.1 238.13-349.39 238.13-573.86h1789.89c0 359.15-68.32 694.88-201.04 1011.09-284.98 642.18-749.53 1104.78-1389.76 1389.76-316.21 134.68-653.89 201.05-1011.09 201.05z"/>
      <path id="ramestta_logo_svg___6" class="ramestta_logo_svg__fil0" d="M97516.48 14777.1h-2047.55L92260 9046.31l-3212.83 5730.79h-2047.55l4477.67-7995h1561.52z"/>
      <path id="ramestta_logo_svg___7" class="ramestta_logo_svg__fil0" d="M107002.74 14777.1h-2168.57l-5100.32-5730.79v5730.79h-1789.9v-7995h2160.76l5108.14 5730.79V6782.1h1789.89z"/>
      <circle cx="10779.61" cy="10779.6" r="10779.6" style="fill:#a229c6"/>
      <path class="ramestta_logo_svg__fil2" d="M5088.08 19484.21c1201.73 812.51 2263.01 1170.21 3656.63 1497.11 397.71 93.3 1111.22 189.87 1540.03 184.86 0-449.85 31.18-3907.08-18.41-4031.53-560.26-45.11-1064.42-149.66-1548.6-315.97-236.54-81.24-449.87-169.79-658.1-265.85-219.73-101.36-404.87-225.86-609.49-324.9-90.7 67.82-227.14 293.97-297.83 390.79-113.79 155.86-199.99 274.5-298.18 409.47-182.75 251.22-401.92 546.94-594.64 820.09-135.4 191.91-1150.67 1548.87-1171.42 1635.92zM735.56 13505.11c123.92-9.18 2922.96-927.33 3329.97-1066.31 145.53-49.7 345.07-100.44 486.12-158.49 16.2-60.46-83.54-591.15-101.51-716.38-64.92-452.65-73.03-1097.14-4.21-1545.29l120.05-720.56-97.36-49.41c-44.52-14.82-75.05-22.62-121.06-38.04L1235.39 8198.7c-108.2-36.46-393.3-141.85-495.16-145.43-86.98 177.89-224.68 1023.96-262.46 1260.79-215.81 1353.01-72.96 2922.7 257.79 4191.04zM16991.15 9282.14c22.8 335.91 166.95 677.37 166.95 1390.26 0 422.72-20.17 540.27-52.9 950.9-11.7 146.82-120.42 562.03-104.2 653.38 301.6 114.96 621.88 201.23 945.04 309.89l2871.44 924.23c293.17-1206.68 366.6-1713.48 366.6-2959.66 0-809.1-168.08-1789.72-362.98-2499.52-236.99 26.9-3302.53 1088.8-3829.94 1230.53zM5086.36 2082.9l1752.17 2429.47c92.69 123.32 537.03 760.96 611.6 812.35l616.79-323.44c206.72-98.38 440.11-188.95 659.21-266.76 626.82-222.57 1442.17-285.58 1551.56-327.4l7.05-4007.36c-803.96-40.15-2140.9 283.75-2903.46 542.82-474 161.03-2053.14 852.5-2294.93 1140.31zM1065.93 7095.12l939.93 311.8c354.05 111.11 2749.55 917.22 2877.54 917.77 85.56-150.06 196.24-442.52 338.49-687.51 124.98-215.25 260.65-416.73 406.8-626.2 155.84-223.37 518.28-644.91 725.61-828.98 45.57-40.46 235.19-208.33 267.78-259.09-29.2-83.63-495.62-700.05-580.32-815.37-191.57-260.83-391.85-538.67-583.78-809.69L4277.09 2676.87c-142.7 41.65-896.89 788.37-1000.18 891.76-579.02 579.54-1204.64 1459.5-1617.11 2200.28-100.46 180.41-598.7 1157.63-593.85 1326.21zM11283.41 21168.43c285.45 20.31 1208.88-116.73 1509.24-181.83 487.65-105.72 913.26-213.58 1355.37-362.72 523.97-176.75 1895.96-781.12 2318.19-1139.68-15.61-83.81-485.33-696.15-575.88-821.89l-1770.69-2431.96-640.4 331.91c-207.17 95.43-458.72 197.37-689.93 274.99-421.74 141.58-756.4 207.09-1193.55 266.66-360.32 49.11-321.8-11.91-319.87 175.74 3.32 323.25-20.54 3703.65 7.52 3888.77zM14933.47 15623.99c24.82 88.3 462.58 661.37 572.09 816.49 194.68 275.79 383.17 522.99 596.16 818.05 148.07 205.12 1115.78 1564.23 1190.97 1620.19 175.99-87.67 853.65-746.55 1000.11-900.55 600.6-631.54 1201.65-1437.93 1613.58-2205.22 86.36-160.86 596.64-1153.37 590.73-1313.1l-3809.35-1239.63c-124.32 162.28-464.35 1219.68-1485 2153-85.05 77.78-159.7 164.21-269.3 250.76zM1060.97 14471.98c29.69 218.95 458.64 1066.21 594.01 1307.24 330.25 588.04 717.74 1177.23 1158.44 1691.99 298.69 348.9 611.84 669.77 928.58 971.71 144.18 137.44 337.06 309.63 514.86 434.97 70.82-38.29 242.15-299.92 302.8-383.97 437.28-606.02 1034.68-1458.01 1470.14-2025.33 105.92-138 194.15-268.65 298.28-408.91 57.2-77.07 89.75-124.32 146.13-199.54 36.45-48.64 114.82-150.73 147.91-215.94-35.32-80.14-188.11-190.43-253.88-251.83-420.77-392.94-852.4-959.23-1140.96-1465.32-138.9-243.6-270.82-570.13-343.9-697.69-96.07-.31-1683.1 535.74-1908.58 607.12-232.59 73.62-1841.28 577.02-1913.85 635.5zM11277.15 4413.59c280.74 47.31 551.73 60.89 814.13 120.8 1221.26 278.83 1945.84 770.77 2028.35 788.22l2056.4-2819.38c63.57-89.37 263.66-336.95 293.29-420.33-47.04-54.2-178.79-127.2-253.96-174.48-92.05-57.9-179.66-109.49-266.43-159.18-185.14-106.02-380.82-207.53-567.99-302.81-786.05-400.1-1675.12-688.31-2556.48-871.35-347.04-72.07-1202.51-211.54-1543.47-182.48l-3.83 4020.99zM14931 5922.91c67.82 80.99 366.13 331.5 521.15 506.64 369.11 417.05 607.77 722.26 879.81 1203.41l354.41 695.85 3813.06-1230.38c-12.42-189.7-485.85-1121.03-589.66-1309.22-218.67-396.41-478.27-802.43-745.72-1171.55-339.91-469.14-919.36-1126.33-1348.91-1501.75-148.33-129.64-358.08-340.95-522.46-441.45-69.64 55.71-1108.11 1512.77-1185.06 1618.48-170.42 234.12-386.77 518.12-587.23 806.32l-589.4 823.65z"/>
      <path class="ramestta_logo_svg__fil3" d="M6500.18 11284.62H6219.1l-197.26-265.8h-440.62v265.8h-226.1v-491.9h772.99c39.94 0 74.22-14.3 102.57-42.66 28.36-28.35 42.65-62.63 42.65-102.57 0-40.44-14.3-74.96-42.65-103.31-28.36-28.35-62.63-42.65-102.57-42.65h-772.99v-226.84l772.99.74c51.04 0 98.87 9.87 143.75 29.59 91.48 40.44 157.56 106.52 198.49 197.99 19.73 48.08 29.83 96.41 29.83 144.49 0 47.59-10.11 95.67-29.83 143.75-39.45 89.01-103.31 154.11-192.07 195.04l221.91 298.34z"/>
      <path id="ramestta_logo_svg___1_0" class="ramestta_logo_svg__fil3" d="M7882.68 11284.62h-258.65l-405.35-723.92-405.85 723.92h-258.65l565.62-1009.93h197.26z"/>
      <path id="ramestta_logo_svg___2_1" class="ramestta_logo_svg__fil3" d="M9265.92 11284.62h-226.1v-660.3l-346.18 494.12h-184.93l-345.19-494.12v660.3h-226.84v-1009.93h256.43l408.07 583.13 408.31-583.13h256.43z"/>
      <path id="ramestta_logo_svg___3_2" class="ramestta_logo_svg__fil3" d="M10647.68 11284.62h-258.64l-405.36-723.92-405.85 723.92h-258.65l565.62-1009.93h197.26z"/>
      <path id="ramestta_logo_svg___4_3" class="ramestta_logo_svg__fil3" d="M11846.74 11284.62h-1145.06v-226.1h1145.06v226.1zm0-780.14h-1145.06v-226.1h1145.06v226.1zm-92.46 390.07h-960.87v-226.1h960.87v226.1z"/>
      <path id="ramestta_logo_svg___5_4" class="ramestta_logo_svg__fil3" d="M12738.08 11284.62h-487.71c-43.89 0-85.56-7.89-125.01-23.92-79.39-31.81-138.08-86.05-176.29-163.23-18.25-37.97-27.37-78.66-27.37-122.05h226.84c0 17.75 5.18 32.8 15.78 45.12 10.6 12.33 23.92 21.7 39.45 27.86 15.78 6.16 31.31 9.37 46.6 9.37h487.71c15.29 0 31.06-3.21 46.85-9.37 15.78-6.16 29.1-15.53 39.7-27.86 10.6-12.33 16.03-27.37 16.03-45.12 0-17.26-5.43-32.05-16.03-44.38-10.6-12.33-23.92-21.7-39.7-28.11-15.78-6.66-31.56-9.87-46.85-9.87h-487.71c-43.89 0-85.56-7.64-125.01-23.17-79.39-31.81-138.08-86.05-176.29-163.23-18.25-37.97-27.37-78.66-27.37-122.05 0-43.4 9.12-84.08 27.37-122.05 38.22-77.17 96.9-131.42 176.29-163.23 39.45-15.54 81.12-23.18 125.01-23.18h487.71c44.13 0 85.8 7.64 124.76 23.18 80.13 31.81 139.06 86.05 177.03 163.23 17.75 37.97 26.87 78.66 26.87 122.05h-226.1c0-17.26-5.43-32.05-16.03-44.38-10.6-12.33-23.92-21.7-39.7-28.11-15.78-6.66-31.56-9.87-46.85-9.87h-487.71c-15.29 0-30.82 3.21-46.6 9.87-15.54 6.41-28.85 15.78-39.45 28.11-10.6 12.33-15.78 27.12-15.78 44.38 0 17.75 5.18 32.8 15.78 44.88 10.6 12.08 23.92 21.2 39.45 27.86 15.78 6.41 31.31 9.62 46.6 9.62h487.71c44.13 0 85.8 7.89 124.76 23.92 80.13 31.81 139.06 86.05 177.03 163.23 17.75 37.97 26.87 78.41 26.87 121.31 0 43.4-9.12 84.08-26.87 122.05-37.97 77.18-96.9 131.42-177.03 163.23-38.96 16.03-80.63 23.92-124.76 23.92z"/>
      <path id="ramestta_logo_svg___6_5" class="ramestta_logo_svg__fil3" d="M13718.92 11284.62h-226.1v-783.83h-367.63v-226.1h960.87v226.1h-367.14z"/>
      <path id="ramestta_logo_svg___7_6" class="ramestta_logo_svg__fil3" d="M14771.52 11284.62h-226.11v-783.83h-367.63v-226.1h960.88v226.1h-367.14z"/>
      <path id="ramestta_logo_svg___8" class="ramestta_logo_svg__fil3" d="M16202.59 11284.62h-258.65l-405.35-723.92-405.85 723.92h-258.65l565.62-1009.93h197.26z"/>
    </g>
  </g>
</svg>
