<svg xmlns="http://www.w3.org/2000/svg" xml:space="preserve" style="shape-rendering:geometricPrecision;text-rendering:geometricPrecision;image-rendering:optimizeQuality;fill-rule:evenodd;clip-rule:evenodd" viewBox="0 0 1179.93 1179.96">
  <defs>
    <style>
      .instagram_svg__fil0{fill:#4b5466}.instagram_svg__fil1{fill:#fff}
    </style>
  </defs>
  <g id="instagram_svg__Layer_x0020_1">
    <g id="instagram_svg___2404309553488">
      <path class="instagram_svg__fil0" d="M576.82.16C397.33 4.22 249.01 94.17 166.05 180.1c-51.4 53.24-87.42 104.05-118.75 175.7-67.16 153.58-61.65 334.94 9.21 485.95 18.98 40.45 64.51 113.66 95.66 143.79 3.89 3.76 5.62 6.18 9.08 10.12 48.96 55.55 129.38 107.83 194.72 136.89 72.74 32.36 159.21 49.08 248.11 47.27 119.87-2.43 239.28-44.98 330.36-111.01l41.54-32.75c12.75-12.37 23.6-19.67 38.6-35.61 106.66-113.28 169.48-255.27 165.14-424.64-2.28-88.74-23.33-166.45-56.84-237.08-16.12-33.97-34.88-65.36-54.69-92.51l-23.87-31.24c-14.31-16.88-28.78-33.87-44.43-49.03-6.41-6.21-12.16-10.26-18.62-17.22-8.05-8.68-54.48-43.36-62.45-48.94C822.15 32.12 702.1-2.68 576.83.15z"/>
      <path class="instagram_svg__fil1" d="M479.44 210.84c-75.02 1.95-133.15 3.61-189.51 48.34-83.69 66.41-77.53 152.58-79.53 253.73-1.25 63.26-1.99 126.43-.25 189.76 1.63 59.4 2.58 114.15 29.32 159.74 22.95 39.14 55.3 68.97 102.25 88.43 46.68 19.35 115.82 17.56 170.16 18.69 63.71 1.33 127.12 1.84 190.84-.04 62.03-1.82 109.28-2.07 159.37-29.37 37.7-20.55 70.79-55.58 89.31-101.39 19.85-49.09 17.22-114.61 18.54-170.68 1.48-63.15 2.21-127.65.1-190.76-2.46-73.8-3.05-132.92-49.18-187.46-70.17-82.95-146.31-76.28-255.35-78.28-61.87-1.14-124.14-2.31-186.07-.71z"/>
      <path class="instagram_svg__fil0" d="M607.72 276.76c-50.51.52-103.48 1.05-153.84 2.93-196.29 7.34-182.53 120.85-178.34 290.58.62 25.34 1.59 50.66 2.2 76.01 2.97 123.16-10.92 237.61 138.17 255.95 48.57 5.98 104.29 3.36 153.56 1.53 51.41-1.91 102.29-2.09 153.68-3.05 104.63-1.95 168.69-29.37 178.53-136.38 4.54-49.29 3.09-105.12 1.9-155.17-1.23-51.63-1.58-103.3-2.85-154.93-2.48-100.9-27.26-165.03-139.15-175.22-50.39-4.59-103.2-2.76-153.87-2.24z"/>
      <path class="instagram_svg__fil1" d="M587.58 384.62c-29.69 1.52-57.53 9.25-82.09 19.7-15.07 6.41-35.99 18.63-47.96 28.86-3.25 2.77-4.2 3.43-7.05 5.74-8.82 7.12-23.25 24.96-29.63 34.37-86.03 126.85.83 331.96 174.32 322.58 160.2-8.66 237.41-151.36 178.77-292.54-7.63-18.37-26.82-50.07-40.6-61.83-9.9-8.45-10.11-11.01-27.24-23.92-32.42-24.45-75.82-35.14-118.53-32.95z"/>
      <path class="instagram_svg__fil0" d="M577.79 456.51c-185.94 21.78-143.65 286.35 23.98 269.33 182.78-18.56 147.53-289.43-23.98-269.33z"/>
      <path class="instagram_svg__fil1" d="M787.38 346.29c-60.44 11.22-43.66 92.71 9.73 85.84 23.07-2.96 41.53-21.74 37.42-48.25-3.22-20.76-22.46-42.17-47.15-37.59z"/>
    </g>
  </g>
</svg>
