<svg xmlns="http://www.w3.org/2000/svg" xml:space="preserve" style="shape-rendering:geometricPrecision;text-rendering:geometricPrecision;image-rendering:optimizeQuality;fill-rule:evenodd;clip-rule:evenodd" viewBox="0 0 1255.03 1255.2">
  <defs>
    <style>
      .youtube_svg__fil0{fill:#4b5466}
    </style>
  </defs>
  <g id="youtube_svg__Layer_x0020_1">
    <g id="youtube_svg___2404312749888">
      <path class="youtube_svg__fil0" d="M598.82.86C261.54 18.5-15.33 299.17.66 657.44c14.93 334.6 301.59 613.81 655.73 597.05 336.91-15.95 614.16-300.62 597.97-656.79C1239.21 264.56 952.41-17.63 598.83.86z"/>
      <path d="M556.26 353.07c-53.54 1.74-106.13 3.51-159.26 5.97-137.87 6.39-149.68 55.83-155.72 176.82-3.37 67.47-11.14 251.21 22.36 306.2 21.73 35.67 59.12 47.27 113.92 52.52 136.18 13.05 340.47 10.08 482.63 1.35 49.55-3.04 101.05-13.24 123.29-42.48 41.9-55.08 35.08-214.63 31.39-294.52-5.55-120-7.3-189.26-134.21-198.79-103.21-7.75-221.04-10.44-324.4-7.08z" style="fill:#fff"/>
      <path class="youtube_svg__fil0" d="m548.44 742.84 198.32-114.58c-3.82-4.64-187.13-112.45-198.26-116.18l-.06 230.76z"/>
    </g>
  </g>
</svg>
