<svg viewBox="0 0 21 22" fill="none" xmlns="http://www.w3.org/2000/svg">
  <path d="m8.632 6.822.333.348-.335.346c-.547.564-1.05 1.083-1.608 1.672l-.359.38-.363-.375a39.44 39.44 0 0 1-.537-.575l-.478-.515c-.858-.9-1.729-1.798-2.599-2.668-.209-.21-.312-.203-.326-.201-.02.003-.128.03-.291.284a10.611 10.611 0 0 0-1.394 3.51c-.049.249-.02.39.009.454.02.046.052.082.141.104H.83c.064.017.1.015.118.011a.105.105 0 0 0 .05-.025c.05-.042.136-.159.206-.43l.001-.003c.133-.497.29-1.002.451-1.522.106-.34.213-.687.318-1.041l.241-.824.597.617L3.817 7.4c.971.994 1.897 1.942 2.79 2.926l.002.004c.117.131.17.29.197.4.03.123.042.253.042.374s-.012.251-.042.374a.892.892 0 0 1-.204.398c-.87.96-1.771 1.892-2.711 2.864-.35.36-.704.727-1.064 1.103l-.583.607-.255-.802-.776-2.445a1.474 1.474 0 0 1-.058-.242l-.001-.009a1.636 1.636 0 0 0-.017-.084l-.001-.004v-.002l-.004-.01-.004-.011c-.046-.147-.097-.192-.116-.205-.014-.009-.06-.035-.187-.014l-.08-.494.08.494c-.117.018-.157.06-.17.077-.014.018-.043.072-.029.196a9.432 9.432 0 0 0 1.556 3.996.253.253 0 0 0 .083.083.099.099 0 0 0 .054.012c.05-.002.173-.036.334-.202l.002-.003c1.16-1.182 2.32-2.379 3.465-3.575l.002-.003c.06-.061.144-.146.217-.202a.556.556 0 0 1 .193-.104.506.506 0 0 1 .618.277c.218.23.437.458.656.687.253.265.506.53.76.8l-.133.125.367.374-.005.006c-.106.123-.223.26-.343.383l-1.164 1.198c-.771.793-1.539 1.582-2.302 2.378-.203.216-.212.338-.208.373.003.025.026.131.269.279l.004.002c1.827 1.13 3.628 1.68 5.412 1.68 1.783 0 3.585-.55 5.412-1.68.25-.154.27-.263.273-.29.004-.043-.012-.175-.233-.403l-3.428-3.537a2.319 2.319 0 0 1-.196-.224.712.712 0 0 1-.097-.19.506.506 0 0 1 .265-.603 97.5 97.5 0 0 0 .668-.685l.001-.001c.26-.27.529-.546.811-.83l.365-.367.354.377c.448.476 1.087 1.135 1.743 1.813l1.842 1.9c.24.24.359.24.374.239.007 0 .116-.016.283-.307 2.138-3.736 2.138-7.435-.026-11.17-.145-.25-.25-.271-.265-.273-.017-.002-.124-.005-.323.2l-.002.003c-.8.816-1.594 1.638-2.387 2.46l-1.19 1.23a1.878 1.878 0 0 1-.08.08h-.001c-.02.017-.072.066-.139.103a.51.51 0 0 1-.353.057.504.504 0 0 1-.39-.37 98.64 98.64 0 0 0-.615-.638l-.001-.001c-.255-.264-.514-.53-.768-.8l.134-.127-.366-.376.004-.005c.12-.137.25-.286.382-.423l3.401-3.51c.238-.245.244-.373.24-.404-.003-.026-.031-.142-.315-.312l-.005-.003C14.016 1.277 12.222.74 10.445.747 8.666.754 6.87 1.304 5.05 2.42c-.233.145-.263.255-.267.29-.004.038.004.157.2.36l.02.022c1.276 1.302 2.54 2.592 3.629 3.73Zm10.206 8.812-.33.575-.462-.476c-.25-.259-.501-.516-.751-.773a119.324 119.324 0 0 1-2.93-3.083.88.88 0 0 1-.204-.41 1.594 1.594 0 0 1-.036-.377c.002-.121.017-.251.05-.373a.908.908 0 0 1 .204-.395c.869-.948 1.77-1.869 2.665-2.785.335-.343.67-.685 1.002-1.027l.443-.458.34.54c.731 1.163 1.11 2.758 1.126 4.37.016 1.617-.332 3.31-1.117 4.672ZM7.43 11.147c-.016-1.724 1.322-3.166 3.022-3.183 1.711-.017 3.086 1.405 3.086 3.122 0 1.723-1.339 3.15-3.054 3.15-1.678 0-3.038-1.388-3.054-3.089Zm-1.325 8.545-.395-.289.281-.401.008-.012c.262-.373.49-.698.814-.88.34-.192.729-.195 1.158-.195.512 0 1.021.004 1.529.008 1.175.009 2.342.017 3.507-.022.47-.017.867.084 1.21.297.335.208.583.502.792.81l.278.41-.407.282c-1.133.784-2.814 1.146-4.423 1.146-1.606 0-3.268-.36-4.352-1.154Zm8.77-17.185.395.286-.277.402c-.267.387-.498.719-.832.898-.33.178-.71.178-1.117.178h-.033c-.512 0-1.021-.004-1.529-.008a85.416 85.416 0 0 0-3.507.022c-.465.016-.863-.079-1.208-.29-.337-.208-.586-.504-.797-.822l-.272-.41.406-.278c1.132-.777 2.81-1.135 4.417-1.133 1.604.002 3.265.363 4.355 1.155Zm-6.18 14.801H7.491l.849-.852c.153-.154.279-.287.403-.419.094-.098.186-.196.288-.3.22-.225.447-.441.705-.628.205-.153.47-.218.682-.236.201-.018.5-.006.738.152l.007.004c.28.193.53.421.756.64.082.079.159.155.233.229.14.139.273.27.415.399l.383.347-.36.371-.012.016a1.215 1.215 0 0 0-.02.028l-.004.006a3.15 3.15 0 0 1-.027.037l-.15.206H8.694Zm-.327-11.55-.85-.852H13.075l-.54.783c-.389.565-.82 1.06-1.339 1.454l-.005.004c-.219.161-.5.203-.707.203-.206 0-.488-.042-.706-.203l-.007-.005-.006-.005c-.345-.271-.664-.61-.981-.946-.139-.146-.276-.292-.416-.432Z" fill="#4A5568" stroke="#4A5568"/>
</svg>
