<svg viewBox="0 0 341 28" fill="none" xmlns="http://www.w3.org/2000/svg">
  <path d="M31.086 28h-7.598l-5.332-7.188H6.242V28H.13V14.7h20.898c1.081 0 2.006-.385 2.774-1.153.768-.768 1.152-1.693 1.152-2.774 0-1.093-.384-2.024-1.152-2.793-.768-.768-1.693-1.152-2.774-1.152H.13V.695l20.898.02c1.38 0 2.676.267 3.887.8 2.474 1.094 4.264 2.878 5.371 5.352.534 1.302.8 2.604.8 3.906 0 1.29-.266 2.585-.8 3.887-1.068 2.409-2.8 4.167-5.195 5.274L31.086 28Zm37.383 0h-6.992L50.52 8.43 39.543 28h-6.992L47.844.695h5.332L68.469 28Zm37.402 0h-6.113V10.148l-9.356 13.36h-5l-9.336-13.36V28h-6.132V.695h6.933l11.035 15.762L98.937.695h6.934V28Zm37.363 0h-6.992L125.285 8.43 114.309 28h-6.993L122.609.695h5.332L143.234 28Z" fill="#000"/>
  <path d="M161.262 28h-6.133V11.242h25.976v6.113h-19.843V28Zm24.824-21.191h-30.957V.695h30.957V6.81ZM214.875 28h-6.992L196.926 8.43 185.949 28h-6.992L194.25.695h5.332L214.875 28Zm21.016 0h-13.164a8.46 8.46 0 0 1-3.438-.703c-2.187-.964-3.769-2.546-4.746-4.746a8.452 8.452 0 0 1-.703-3.438V.773h6.113v18.34c0 .768.267 1.426.801 1.973.547.534 1.204.8 1.973.8h13.164c.755 0 1.406-.273 1.953-.82.547-.546.82-1.197.82-1.953V.773h6.113v18.34a8.59 8.59 0 0 1-.703 3.457c-.963 2.188-2.539 3.763-4.726 4.727a8.595 8.595 0 0 1-3.457.703Zm34.531 0h-13.164a8.668 8.668 0 0 1-3.438-.684c-2.2-.976-3.782-2.558-4.746-4.746a8.59 8.59 0 0 1-.703-3.457V9.68c0-1.211.234-2.357.703-3.438.964-2.187 2.546-3.77 4.746-4.746a8.46 8.46 0 0 1 3.438-.703h13.164c1.224 0 2.376.234 3.457.703 2.187.977 3.769 2.559 4.746 4.746a8.752 8.752 0 0 1 .684 3.438h-6.114c0-.769-.273-1.42-.82-1.953a2.658 2.658 0 0 0-1.953-.801h-13.164c-.768 0-1.426.267-1.973.8a2.657 2.657 0 0 0-.801 1.954v9.433c0 .768.267 1.426.801 1.973.547.534 1.205.8 1.973.8h13.164c.768 0 1.419-.266 1.953-.8.547-.547.82-1.204.82-1.973h6.114a8.8 8.8 0 0 1-.684 3.457c-.977 2.188-2.559 3.77-4.746 4.746a8.806 8.806 0 0 1-3.457.684Zm41.992 0h-30.957v-6.113h30.957V28Zm0-21.094h-30.957V.793h30.957v6.113Zm-2.5 10.547h-25.976V11.34h25.976v6.113ZM330.949 28h-6.113V6.809h-9.941V.695h25.976V6.81h-9.922V28Z" fill="#8050DF"/>
</svg>
